<svg width="1288" height="744" viewBox="0 0 1288 744" fill="none" xmlns="http://www.w3.org/2000/svg">
<g opacity="0.6">
<g filter="url(#filter0_f)">
<path d="M426.667 347.822C476.518 356.454 515.499 379.301 530.978 407.174C546.013 434.248 531.401 462.814 503.711 486.56C476.294 510.073 435.68 529.544 385.652 531.804C336.698 534.016 294.082 517.189 259.68 497.586C225.239 477.961 194.804 453.736 200.747 426.439C206.696 399.116 246.718 379.733 288.505 365.192C330.671 350.518 379.226 339.608 426.667 347.822Z" fill="#FAFF00"/>
</g>
<g filter="url(#filter1_f)">
<path d="M911.498 345.084C980.324 346.876 1050.74 365.876 1079.37 395.497C1105.56 422.598 1066.1 452.157 1041.49 479.587C1024.71 498.293 999.905 514.515 963.141 525.058C929.953 534.575 891.311 532.228 852.62 533.75C792.398 536.12 725.763 553.941 678.31 536.266C627.467 517.327 616.866 480.873 630.349 450.957C643.205 422.433 697.396 404.985 745.671 386.806C796.58 367.636 846.491 343.391 911.498 345.084Z" fill="#FF85F7"/>
</g>
<g filter="url(#filter2_f)">
<path d="M643.206 209.171C703.699 219.575 737.313 257.547 771.273 291.548C803.061 323.374 834.125 356.779 828.289 394.477C822.088 434.525 788.666 470.673 739.694 495.518C688.271 521.606 624.104 536.092 559.222 530.982C491.408 525.641 423.137 505.693 387.98 467.819C354.501 431.752 375.785 387.756 387.908 346.428C399.654 306.383 407.141 263.315 455.611 237.256C506.917 209.672 578.722 198.08 643.206 209.171Z" fill="#47D16C"/>
</g>
<g filter="url(#filter3_f)">
<path d="M772.962 380.054C794.813 381.198 817.17 393.323 826.259 412.227C834.575 429.522 822.045 448.387 814.233 465.893C808.905 477.83 801.03 488.183 789.358 494.911C778.821 500.985 766.552 499.487 754.268 500.459C735.148 501.971 713.992 513.344 698.926 502.064C682.783 489.978 679.418 466.713 683.698 447.621C687.78 429.417 704.985 418.282 720.312 406.68C736.476 394.446 752.322 378.973 772.962 380.054Z" fill="#0073FA"/>
</g>
</g>
<defs>
<filter id="filter0_f" x="0" y="145" width="737" height="587" filterUnits="userSpaceOnUse" color-interpolation-filters="sRGB">
<feFlood flood-opacity="0" result="BackgroundImageFix"/>
<feBlend mode="normal" in="SourceGraphic" in2="BackgroundImageFix" result="shape"/>
<feGaussianBlur stdDeviation="100" result="effect1_foregroundBlur"/>
</filter>
<filter id="filter1_f" x="425" y="145" width="863" height="599" filterUnits="userSpaceOnUse" color-interpolation-filters="sRGB">
<feFlood flood-opacity="0" result="BackgroundImageFix"/>
<feBlend mode="normal" in="SourceGraphic" in2="BackgroundImageFix" result="shape"/>
<feGaussianBlur stdDeviation="100" result="effect1_foregroundBlur"/>
</filter>
<filter id="filter2_f" x="170" y="5" width="859" height="727" filterUnits="userSpaceOnUse" color-interpolation-filters="sRGB">
<feFlood flood-opacity="0" result="BackgroundImageFix"/>
<feBlend mode="normal" in="SourceGraphic" in2="BackgroundImageFix" result="shape"/>
<feGaussianBlur stdDeviation="100" result="effect1_foregroundBlur"/>
</filter>
<filter id="filter3_f" x="522" y="220" width="467" height="447" filterUnits="userSpaceOnUse" color-interpolation-filters="sRGB">
<feFlood flood-opacity="0" result="BackgroundImageFix"/>
<feBlend mode="normal" in="SourceGraphic" in2="BackgroundImageFix" result="shape"/>
<feGaussianBlur stdDeviation="80" result="effect1_foregroundBlur"/>
</filter>
</defs>
</svg>
